<mxfile host="app.diagrams.net" modified="2023-09-20T14:11:43.420Z" agent="Mozilla/5.0 (X11; Linux x86_64) AppleWebKit/537.36 (KHTML, like Gecko) Chrome/112.0.0.0 Safari/537.36" etag="wGdMSfcPVqZGU9iRk_J_" version="21.7.5" type="github">
  <diagram name="Page-1" id="HS2XvParzCHcBiEpPVjd">
    <mxGraphModel dx="850" dy="777" grid="1" gridSize="10" guides="1" tooltips="1" connect="1" arrows="1" fold="1" page="1" pageScale="1" pageWidth="850" pageHeight="1100" math="0" shadow="0">
      <root>
        <mxCell id="0" />
        <mxCell id="1" parent="0" />
        <mxCell id="omk7hwVZl4q1484JAspL-1" value="" style="rounded=1;whiteSpace=wrap;html=1;fillColor=#f5f5f5;strokeColor=#666666;strokeWidth=4;fontColor=#333333;" vertex="1" parent="1">
          <mxGeometry x="139" y="129" width="420" height="340" as="geometry" />
        </mxCell>
        <mxCell id="omk7hwVZl4q1484JAspL-2" style="edgeStyle=orthogonalEdgeStyle;rounded=1;orthogonalLoop=1;jettySize=auto;html=1;strokeWidth=2;shadow=1;endArrow=none;endFill=0;startArrow=classic;startFill=1;" edge="1" parent="1" source="omk7hwVZl4q1484JAspL-6">
          <mxGeometry relative="1" as="geometry">
            <mxPoint x="252" y="90" as="targetPoint" />
          </mxGeometry>
        </mxCell>
        <mxCell id="omk7hwVZl4q1484JAspL-3" style="edgeStyle=orthogonalEdgeStyle;rounded=0;orthogonalLoop=1;jettySize=auto;html=1;entryX=0;entryY=0.5;entryDx=0;entryDy=0;strokeWidth=2;" edge="1" parent="1" source="omk7hwVZl4q1484JAspL-6" target="omk7hwVZl4q1484JAspL-21">
          <mxGeometry relative="1" as="geometry" />
        </mxCell>
        <mxCell id="omk7hwVZl4q1484JAspL-4" style="edgeStyle=orthogonalEdgeStyle;rounded=0;orthogonalLoop=1;jettySize=auto;html=1;entryX=0.5;entryY=0;entryDx=0;entryDy=0;strokeWidth=2;" edge="1" parent="1" target="omk7hwVZl4q1484JAspL-20">
          <mxGeometry relative="1" as="geometry">
            <mxPoint x="253" y="225" as="sourcePoint" />
          </mxGeometry>
        </mxCell>
        <mxCell id="omk7hwVZl4q1484JAspL-6" value="&lt;b&gt;Conv+BN+ReLU&lt;/b&gt;" style="rounded=0;whiteSpace=wrap;html=1;fillColor=#fff2cc;strokeColor=#000000;strokeWidth=3;shadow=1;" vertex="1" parent="1">
          <mxGeometry x="193" y="179" width="120" height="40" as="geometry" />
        </mxCell>
        <mxCell id="omk7hwVZl4q1484JAspL-22" style="edgeStyle=orthogonalEdgeStyle;rounded=0;orthogonalLoop=1;jettySize=auto;html=1;exitX=0.5;exitY=1;exitDx=0;exitDy=0;strokeWidth=2;" edge="1" parent="1" source="omk7hwVZl4q1484JAspL-10">
          <mxGeometry relative="1" as="geometry">
            <mxPoint x="442" y="510" as="targetPoint" />
          </mxGeometry>
        </mxCell>
        <mxCell id="omk7hwVZl4q1484JAspL-10" value="&lt;b style=&quot;border-color: var(--border-color);&quot;&gt;DilatiedConv+ReLU&lt;/b&gt;" style="rounded=0;whiteSpace=wrap;html=1;fillColor=#ffe6cc;strokeColor=#000000;strokeWidth=3;shadow=1;" vertex="1" parent="1">
          <mxGeometry x="377" y="391" width="130" height="40" as="geometry" />
        </mxCell>
        <mxCell id="omk7hwVZl4q1484JAspL-13" style="edgeStyle=orthogonalEdgeStyle;rounded=0;orthogonalLoop=1;jettySize=auto;html=1;entryX=0.5;entryY=0;entryDx=0;entryDy=0;strokeWidth=2;shadow=1;" edge="1" parent="1" target="omk7hwVZl4q1484JAspL-10">
          <mxGeometry relative="1" as="geometry">
            <mxPoint x="442" y="281" as="sourcePoint" />
          </mxGeometry>
        </mxCell>
        <mxCell id="omk7hwVZl4q1484JAspL-25" style="edgeStyle=orthogonalEdgeStyle;rounded=0;orthogonalLoop=1;jettySize=auto;html=1;exitX=0.5;exitY=0;exitDx=0;exitDy=0;" edge="1" parent="1" source="omk7hwVZl4q1484JAspL-16">
          <mxGeometry relative="1" as="geometry">
            <mxPoint x="442" y="237" as="targetPoint" />
          </mxGeometry>
        </mxCell>
        <mxCell id="omk7hwVZl4q1484JAspL-16" value="&lt;b style=&quot;border-color: var(--border-color);&quot;&gt;DilatiedConv+ReLU&lt;/b&gt;" style="rounded=0;whiteSpace=wrap;html=1;fillColor=#ffe6cc;strokeColor=#000000;strokeWidth=3;shadow=1;" vertex="1" parent="1">
          <mxGeometry x="377" y="237" width="130" height="40" as="geometry" />
        </mxCell>
        <mxCell id="omk7hwVZl4q1484JAspL-18" value="Concat" style="rounded=1;whiteSpace=wrap;html=1;strokeWidth=3;shadow=1;fillColor=#e1d5e7;strokeColor=#000000;" vertex="1" parent="1">
          <mxGeometry x="407" y="337" width="70" height="30" as="geometry" />
        </mxCell>
        <mxCell id="omk7hwVZl4q1484JAspL-19" style="edgeStyle=orthogonalEdgeStyle;rounded=0;orthogonalLoop=1;jettySize=auto;html=1;strokeWidth=2;" edge="1" parent="1" source="omk7hwVZl4q1484JAspL-20">
          <mxGeometry relative="1" as="geometry">
            <mxPoint x="253" y="510" as="targetPoint" />
          </mxGeometry>
        </mxCell>
        <mxCell id="omk7hwVZl4q1484JAspL-23" style="edgeStyle=orthogonalEdgeStyle;rounded=0;orthogonalLoop=1;jettySize=auto;html=1;exitX=1;exitY=0.5;exitDx=0;exitDy=0;entryX=0;entryY=0.5;entryDx=0;entryDy=0;strokeWidth=2;" edge="1" parent="1" source="omk7hwVZl4q1484JAspL-20" target="omk7hwVZl4q1484JAspL-18">
          <mxGeometry relative="1" as="geometry" />
        </mxCell>
        <mxCell id="omk7hwVZl4q1484JAspL-20" value="&lt;b&gt;Conv+BN+ReLU&lt;/b&gt;" style="rounded=0;whiteSpace=wrap;html=1;fillColor=#fff2cc;strokeColor=#000000;strokeWidth=3;shadow=1;" vertex="1" parent="1">
          <mxGeometry x="193" y="332" width="120" height="40" as="geometry" />
        </mxCell>
        <mxCell id="omk7hwVZl4q1484JAspL-24" style="edgeStyle=orthogonalEdgeStyle;rounded=0;orthogonalLoop=1;jettySize=auto;html=1;entryX=0.5;entryY=0;entryDx=0;entryDy=0;strokeWidth=2;" edge="1" parent="1" source="omk7hwVZl4q1484JAspL-21" target="omk7hwVZl4q1484JAspL-16">
          <mxGeometry relative="1" as="geometry" />
        </mxCell>
        <mxCell id="omk7hwVZl4q1484JAspL-26" style="edgeStyle=orthogonalEdgeStyle;rounded=0;orthogonalLoop=1;jettySize=auto;html=1;endArrow=none;endFill=0;startArrow=classic;startFill=1;strokeWidth=2;" edge="1" parent="1" source="omk7hwVZl4q1484JAspL-21">
          <mxGeometry relative="1" as="geometry">
            <mxPoint x="442" y="90" as="targetPoint" />
          </mxGeometry>
        </mxCell>
        <mxCell id="omk7hwVZl4q1484JAspL-21" value="Concat" style="rounded=1;whiteSpace=wrap;html=1;strokeWidth=3;shadow=1;fillColor=#e1d5e7;strokeColor=#000000;" vertex="1" parent="1">
          <mxGeometry x="407" y="184" width="70" height="30" as="geometry" />
        </mxCell>
      </root>
    </mxGraphModel>
  </diagram>
</mxfile>
